<svg width="24" height="24" viewBox="0 0 24 24" fill="none" xmlns="http://www.w3.org/2000/svg"><path d="M5.97571 20.1919C5.42571 20.1919 4.95487 19.9961 4.56321 19.6044C4.17154 19.2127 3.97571 18.7419 3.97571 18.1919C3.97571 17.6419 4.17154 17.1711 4.56321 16.7794C4.95487 16.3877 5.42571 16.1919 5.97571 16.1919C6.52571 16.1919 6.99654 16.3877 7.38821 16.7794C7.77987 17.1711 7.97571 17.6419 7.97571 18.1919C7.97571 18.7419 7.77987 19.2127 7.38821 19.6044C6.99654 19.9961 6.52571 20.1919 5.97571 20.1919ZM11.9757 20.1919C11.4257 20.1919 10.9549 19.9961 10.5632 19.6044C10.1715 19.2127 9.97571 18.7419 9.97571 18.1919C9.97571 17.6419 10.1715 17.1711 10.5632 16.7794C10.9549 16.3877 11.4257 16.1919 11.9757 16.1919C12.5257 16.1919 12.9965 16.3877 13.3882 16.7794C13.7799 17.1711 13.9757 17.6419 13.9757 18.1919C13.9757 18.7419 13.7799 19.2127 13.3882 19.6044C12.9965 19.9961 12.5257 20.1919 11.9757 20.1919ZM17.9757 20.1919C17.4257 20.1919 16.9549 19.9961 16.5632 19.6044C16.1715 19.2127 15.9757 18.7419 15.9757 18.1919C15.9757 17.6419 16.1715 17.1711 16.5632 16.7794C16.9549 16.3877 17.4257 16.1919 17.9757 16.1919C18.5257 16.1919 18.9965 16.3877 19.3882 16.7794C19.7799 17.1711 19.9757 17.6419 19.9757 18.1919C19.9757 18.7419 19.7799 19.2127 19.3882 19.6044C18.9965 19.9961 18.5257 20.1919 17.9757 20.1919ZM5.97571 14.1919C5.42571 14.1919 4.95487 13.9961 4.56321 13.6044C4.17154 13.2127 3.97571 12.7419 3.97571 12.1919C3.97571 11.6419 4.17154 11.1711 4.56321 10.7794C4.95487 10.3877 5.42571 10.1919 5.97571 10.1919C6.52571 10.1919 6.99654 10.3877 7.38821 10.7794C7.77987 11.1711 7.97571 11.6419 7.97571 12.1919C7.97571 12.7419 7.77987 13.2127 7.38821 13.6044C6.99654 13.9961 6.52571 14.1919 5.97571 14.1919ZM11.9757 14.1919C11.4257 14.1919 10.9549 13.9961 10.5632 13.6044C10.1715 13.2127 9.97571 12.7419 9.97571 12.1919C9.97571 11.6419 10.1715 11.1711 10.5632 10.7794C10.9549 10.3877 11.4257 10.1919 11.9757 10.1919C12.5257 10.1919 12.9965 10.3877 13.3882 10.7794C13.7799 11.1711 13.9757 11.6419 13.9757 12.1919C13.9757 12.7419 13.7799 13.2127 13.3882 13.6044C12.9965 13.9961 12.5257 14.1919 11.9757 14.1919ZM17.9757 14.1919C17.4257 14.1919 16.9549 13.9961 16.5632 13.6044C16.1715 13.2127 15.9757 12.7419 15.9757 12.1919C15.9757 11.6419 16.1715 11.1711 16.5632 10.7794C16.9549 10.3877 17.4257 10.1919 17.9757 10.1919C18.5257 10.1919 18.9965 10.3877 19.3882 10.7794C19.7799 11.1711 19.9757 11.6419 19.9757 12.1919C19.9757 12.7419 19.7799 13.2127 19.3882 13.6044C18.9965 13.9961 18.5257 14.1919 17.9757 14.1919ZM5.97571 8.19189C5.42571 8.19189 4.95487 7.99606 4.56321 7.60439C4.17154 7.21273 3.97571 6.74189 3.97571 6.19189C3.97571 5.64189 4.17154 5.17106 4.56321 4.77939C4.95487 4.38773 5.42571 4.19189 5.97571 4.19189C6.52571 4.19189 6.99654 4.38773 7.38821 4.77939C7.77987 5.17106 7.97571 5.64189 7.97571 6.19189C7.97571 6.74189 7.77987 7.21273 7.38821 7.60439C6.99654 7.99606 6.52571 8.19189 5.97571 8.19189ZM11.9757 8.19189C11.4257 8.19189 10.9549 7.99606 10.5632 7.60439C10.1715 7.21273 9.97571 6.74189 9.97571 6.19189C9.97571 5.64189 10.1715 5.17106 10.5632 4.77939C10.9549 4.38773 11.4257 4.19189 11.9757 4.19189C12.5257 4.19189 12.9965 4.38773 13.3882 4.77939C13.7799 5.17106 13.9757 5.64189 13.9757 6.19189C13.9757 6.74189 13.7799 7.21273 13.3882 7.60439C12.9965 7.99606 12.5257 8.19189 11.9757 8.19189ZM17.9757 8.19189C17.4257 8.19189 16.9549 7.99606 16.5632 7.60439C16.1715 7.21273 15.9757 6.74189 15.9757 6.19189C15.9757 5.64189 16.1715 5.17106 16.5632 4.77939C16.9549 4.38773 17.4257 4.19189 17.9757 4.19189C18.5257 4.19189 18.9965 4.38773 19.3882 4.77939C19.7799 5.17106 19.9757 5.64189 19.9757 6.19189C19.9757 6.74189 19.7799 7.21273 19.3882 7.60439C18.9965 7.99606 18.5257 8.19189 17.9757 8.19189Z" fill="#8CBDB9"></path></svg>