<svg width="16" height="16" viewBox="0 0 16 16" fill="none" xmlns="http://www.w3.org/2000/svg">
<g clip-path="url(#clip0_193_3515)">
<mask id="mask0_193_3515" style="mask-type:alpha" maskUnits="userSpaceOnUse" x="-1" y="-1" width="25" height="25">
<rect x="-0.490234" y="-0.406479" width="24" height="24" fill="#D9D9D9"/>
</mask>
<g mask="url(#mask0_193_3515)">
<path d="M2.45649 13.729C2.22316 13.7846 2.02038 13.7262 1.84816 13.554C1.67594 13.3818 1.6176 13.179 1.67316 12.9457L2.33982 9.76235L5.63982 13.0623L2.45649 13.729ZM5.63982 13.0623L2.33982 9.76235L9.97316 2.12901C10.2287 1.87346 10.5454 1.74568 10.9232 1.74568C11.3009 1.74568 11.6176 1.87346 11.8732 2.12901L13.2732 3.52901C13.5287 3.78457 13.6565 4.10124 13.6565 4.47901C13.6565 4.85679 13.5287 5.17346 13.2732 5.42901L5.63982 13.0623ZM10.9232 3.06235L4.02316 9.96235L5.43982 11.379L12.3398 4.47901L10.9232 3.06235Z" fill="#E09E50"/>
</g>
</g>
<defs>
<clipPath id="clip0_193_3515">
<rect width="16" height="16" fill="white"/>
</clipPath>
</defs>
</svg>
