<svg width="16" height="16" viewBox="0 0 16 16" fill="none" xmlns="http://www.w3.org/2000/svg">
<g clip-path="url(#clip0_80_6365)">
<mask id="mask0_80_6365" style="mask-type:alpha" maskUnits="userSpaceOnUse" x="-1" y="-1" width="25" height="25">
<rect x="-0.490234" y="-0.406494" width="24" height="24" fill="#D9D9D9"/>
</mask>
<g mask="url(#mask0_80_6365)">
<path d="M2.45649 13.729C2.22316 13.7846 2.02038 13.7262 1.84816 13.554C1.67594 13.3818 1.6176 13.179 1.67316 12.9457L2.33982 9.76233L5.63982 13.0623L2.45649 13.729ZM5.63982 13.0623L2.33982 9.76233L9.97316 2.129C10.2287 1.87344 10.5454 1.74567 10.9232 1.74567C11.3009 1.74567 11.6176 1.87344 11.8732 2.129L13.2732 3.529C13.5287 3.78456 13.6565 4.10122 13.6565 4.479C13.6565 4.85678 13.5287 5.17344 13.2732 5.429L5.63982 13.0623ZM10.9232 3.06233L4.02316 9.96233L5.43982 11.379L12.3398 4.479L10.9232 3.06233Z" fill="#599B96"/>
</g>
</g>
<defs>
<clipPath id="clip0_80_6365">
<rect width="16" height="16" fill="white"/>
</clipPath>
</defs>
</svg>
