<svg width="16" height="16" viewBox="0 0 16 16" fill="none" xmlns="http://www.w3.org/2000/svg">
<mask id="mask0_32_1724" style="mask-type:alpha" maskUnits="userSpaceOnUse" x="0" y="0" width="16" height="16">
<rect width="16" height="16" fill="#D9D9D9"/>
</mask>
<g mask="url(#mask0_32_1724)">
<path d="M3.33333 14C2.96667 14 2.65278 13.8694 2.39167 13.6083C2.13056 13.3472 2 13.0333 2 12.6667V10H3.33333V12.6667H12.6667V3.33333H3.33333V6H2V3.33333C2 2.96667 2.13056 2.65278 2.39167 2.39167C2.65278 2.13056 2.96667 2 3.33333 2H12.6667C13.0333 2 13.3472 2.13056 13.6083 2.39167C13.8694 2.65278 14 2.96667 14 3.33333V12.6667C14 13.0333 13.8694 13.3472 13.6083 13.6083C13.3472 13.8694 13.0333 14 12.6667 14H3.33333ZM7 11.3333L6.06667 10.3667L7.76667 8.66667H2V7.33333H7.76667L6.06667 5.63333L7 4.66667L10.3333 8L7 11.3333Z" fill="#599B96"/>
</g>
</svg>
