<svg width="16" height="16" viewBox="0 0 16 16" fill="none" xmlns="http://www.w3.org/2000/svg">
<g clip-path="url(#clip0_193_3519)">
<mask id="mask0_193_3519" style="mask-type:alpha" maskUnits="userSpaceOnUse" x="0" y="0" width="16" height="16">
<rect width="16" height="16" fill="#D9D9D9"/>
</mask>
<g mask="url(#mask0_193_3519)">
<path d="M4.66675 14C4.30008 14 3.98619 13.8694 3.72508 13.6083C3.46397 13.3472 3.33341 13.0333 3.33341 12.6667V4H2.66675V2.66667H6.00008V2H10.0001V2.66667H13.3334V4H12.6667V12.6667C12.6667 13.0333 12.5362 13.3472 12.2751 13.6083C12.014 13.8694 11.7001 14 11.3334 14H4.66675ZM11.3334 4H4.66675V12.6667H11.3334V4ZM6.00008 11.3333H7.33341V5.33333H6.00008V11.3333ZM8.66675 11.3333H10.0001V5.33333H8.66675V11.3333Z" fill="#C7D1CF"/>
</g>
</g>
<defs>
<clipPath id="clip0_193_3519">
<rect width="16" height="16" fill="white"/>
</clipPath>
</defs>
</svg>
