<svg width="38" height="20" viewBox="0 0 38 20" fill="none" xmlns="http://www.w3.org/2000/svg">
<path fill-rule="evenodd" clip-rule="evenodd" d="M36.5337 0.35855C37.4404 0.98933 37.6642 2.23574 37.0334 3.14249L25.9029 19.1425C25.5712 19.6194 25.0484 19.9285 24.4706 19.9894C23.8928 20.0502 23.3171 19.8568 22.8932 19.4594L12.8896 10.081L3.0661 16.2679C2.13146 16.8566 0.89658 16.5761 0.307931 15.6415C-0.280717 14.7068 -0.000229061 13.4719 0.934419 12.8833L12.0649 5.87325C12.8347 5.38838 13.8348 5.48424 14.4986 6.1065L23.9408 14.9586L33.7498 0.858231C34.3805 -0.0485159 35.6269 -0.272231 36.5337 0.35855Z" fill="url(#paint0_linear_83_221)"/>
<defs>
<linearGradient id="paint0_linear_83_221" x1="0.000244141" y1="20.0004" x2="41.0002" y2="20.0004" gradientUnits="userSpaceOnUse">
<stop offset="0.490092" stop-color="#E09E50"/>
<stop offset="1" stop-color="#E09E50" stop-opacity="0.3"/>
</linearGradient>
</defs>
</svg>
